<svg fill="#000000" height="56px" width="56px" version="1.1" id="Layer_1" xmlns="http://www.w3.org/2000/svg" xmlns:xlink="http://www.w3.org/1999/xlink" viewBox="0 0 512 512" xml:space="preserve"><g id="SVGRepo_bgCarrier" stroke-width="0"></g><g id="SVGRepo_tracerCarrier" stroke-linecap="round" stroke-linejoin="round"></g><g id="SVGRepo_iconCarrier"> <g> <g> <path d="M415.063,227.104V115.063h80.951L418.96,3.401H275.919v111.662h33.471v112.041H208.223v-55.579 c21.628-18.113,34.303-44.946,34.303-73.419c0-41.073-26.138-77.519-65.04-90.691L155.583,0v81.522h-17.619V0l-21.904,7.416 C77.158,20.587,51.022,57.034,51.022,98.107c0,28.473,12.676,55.306,34.303,73.418v55.579H7.447V512h497.106V227.104H415.063z M309.088,81.893V36.57h92.46l31.276,45.323H309.088z M381.893,115.063v112.041H342.56V115.063H381.893z M84.191,98.107 c0-18.093,7.761-34.813,20.605-46.426v63.011h83.958V51.68c12.844,11.614,20.605,28.333,20.605,46.426 c0,20.579-10.142,39.855-27.13,51.564l-7.172,4.943v72.49h-56.56v-72.49l-7.176-4.943 C94.334,137.962,84.191,118.687,84.191,98.107z M40.617,478.831V260.273h430.767v218.557H40.617z"></path> </g> </g> </g></svg>