<svg fill="#000000" width="56px" height="56px" viewBox="0 0 100 100" data-name="Layer 1" id="Layer_1" xmlns="http://www.w3.org/2000/svg"><g id="SVGRepo_bgCarrier" stroke-width="0"></g><g id="SVGRepo_tracerCarrier" stroke-linecap="round" stroke-linejoin="round"></g><g id="SVGRepo_iconCarrier"><path d="M17.67,66.27a5.6,5.6,0,0,0,.71,2.78c1.3,2.18,3.86,3.24,7.82,3.25,4.31,0,9.8-1.28,15.92-3.63l1.22,2.83a1.09,1.09,0,0,0,.29.41l7.22,6.87,3.57,8.31a1.25,1.25,0,0,0,1.15.76,1.43,1.43,0,0,0,.49-.1,1.25,1.25,0,0,0,.65-1.65l-3.66-8.54a1.46,1.46,0,0,0-.29-.41l-7.22-6.87-1.1-2.54q2.66-1.11,5.43-2.47a1.25,1.25,0,0,0,.57-1.68A1.27,1.27,0,0,0,48.77,63c-1.79.88-3.57,1.68-5.31,2.41l-3.83-8.94L39,51.33l0-.54a1.88,1.88,0,0,1,.59-1.48,1.68,1.68,0,0,1,.86-.38L44,59.55a1.25,1.25,0,0,0,1.18.85,1.18,1.18,0,0,0,.41-.07,1.25,1.25,0,0,0,.78-1.58L42.5,47.31c0-.05-.69-2.19-1.16-3.65a.7.7,0,0,1,0-.55.74.74,0,0,1,.42-.36l.88-.27a1.05,1.05,0,0,1,.43,0,.93.93,0,0,1,.41.12,1.11,1.11,0,0,1,.56.64l.78,2.36h0l3.85,10.78a1.24,1.24,0,0,0,1.17.83,1.2,1.2,0,0,0,.42-.07,1.26,1.26,0,0,0,.76-1.6L47.25,44.77,46.18,41.1a1.78,1.78,0,0,1,3.32-1.27l3.23,7.81s0,0,.05.08l2.45,7.6a1.25,1.25,0,0,0,1.19.87,1.31,1.31,0,0,0,.38-.06,1.25,1.25,0,0,0,.81-1.57l-2.58-8a19.07,19.07,0,0,1-.4-2.37,1.22,1.22,0,0,1,.58-.85,1.24,1.24,0,0,1,1.07-.09,1.28,1.28,0,0,1,.24.11A1.12,1.12,0,0,1,57,44l5,15.56h0a1.25,1.25,0,1,0,2.38-.76l-1.64-5.17a1.84,1.84,0,0,1,1.44-1.43,1.82,1.82,0,0,1,2.11,1.3l0,.33a17,17,0,0,0,1.16,4.31,9,9,0,0,1,.85,4.69L65.4,69l-1.28,2.56a1.19,1.19,0,0,0-.07,1l3.73,11.19a1.25,1.25,0,0,0,2.38-.79l-3.58-10.7,1.07-2.12,3-6.36a1.19,1.19,0,0,0,.1-.32,11.13,11.13,0,0,0-.95-6.14,15.12,15.12,0,0,1-1-3.71l0-.41,0-.16a4.32,4.32,0,0,0-5-3.24,4.24,4.24,0,0,0-1.91.91l-1.84-5.74,2.72-6.35a1.78,1.78,0,0,0,.09-.33l.68-5.41s0-.08,0-.12v-.6A4.39,4.39,0,0,0,62,28.64a4.13,4.13,0,0,0-1.71-.89c.21-.67.46-1.47.68-2.12a3.19,3.19,0,0,0-.23-2.46,3.15,3.15,0,0,0-1.89-1.58l-.88-.28a3.56,3.56,0,0,0-1.71-.1,4.3,4.3,0,0,0-1-2.23,4.25,4.25,0,0,0-3.9-1.38,4.31,4.31,0,0,0-3.22,2.5l-1.25,3a3.42,3.42,0,0,0-.85-.71,3.75,3.75,0,0,0-3.16-.32,3.62,3.62,0,0,0-2.29,2.32l-2.38,7.42a4.23,4.23,0,0,0-1.92-.91,4.31,4.31,0,0,0-5,3.24l0,.15,0,.42a14.7,14.7,0,0,1-1,3.71,11,11,0,0,0-.94,6.13,1.15,1.15,0,0,0,.1.33l2.83,6-.65,4.14-1.74,9.19a1.25,1.25,0,0,0,2.46.47l1.74-9.24.71-4.55a1.22,1.22,0,0,0-.1-.73L31.59,44a9.09,9.09,0,0,1,.84-4.69A17,17,0,0,0,33.59,35l0-.32a1.81,1.81,0,0,1,2.11-1.3,1.84,1.84,0,0,1,1.44,1.43L35.53,40h0a1.25,1.25,0,0,0,2.39.76l5-15.56a1.14,1.14,0,0,1,.75-.73,1.23,1.23,0,0,1,1.6.91,18.52,18.52,0,0,1-.42,2.51l-1.55,4.91a1.25,1.25,0,0,0,.81,1.57,1.31,1.31,0,0,0,.38.06,1.25,1.25,0,0,0,1.19-.87l1.47-4.64,0,0,3.21-7.77a1.77,1.77,0,0,1,1.33-1,1.78,1.78,0,0,1,2,2.25L52.64,26l-2.83,7.74a1.25,1.25,0,0,0,.74,1.6,1.12,1.12,0,0,0,.43.08,1.26,1.26,0,0,0,1.18-.82L55,26.81v0h0l.79-2.36a1.13,1.13,0,0,1,1.4-.72l.88.27a.74.74,0,0,1,.42.36.68.68,0,0,1,0,.54l-1.16,3.65L54.48,37a1.26,1.26,0,0,0,.78,1.59,1.14,1.14,0,0,0,.41.07,1.27,1.27,0,0,0,1.18-.84l2.62-7.63a1.61,1.61,0,0,1,.86.38A1.82,1.82,0,0,1,60.92,32v.53l-.65,5.17-1.75,4.08v0a4.31,4.31,0,0,0-.4-.32,2.78,2.78,0,0,0-.27-.21,3.76,3.76,0,0,0-.81-.38,3.47,3.47,0,0,0-.79-.17,3.69,3.69,0,0,0-2.31.51,3.92,3.92,0,0,0-.86.71L51.8,38.84a4.28,4.28,0,0,0-3.2-2.46l-.25,0A4.27,4.27,0,0,0,43.66,40a3.69,3.69,0,0,0-1.71.1l-.88.28A3.22,3.22,0,0,0,39,44.42c.21.65.47,1.44.68,2.12a4.17,4.17,0,0,0-1.71.88,4.36,4.36,0,0,0-1.46,3.43l0,.6a.62.62,0,0,0,0,.13l.68,5.4a1,1,0,0,0,.09.34l3.87,9c-5.76,2.19-11,3.43-14.88,3.43h-.08c-2.89,0-4.94-.72-5.62-2a3.16,3.16,0,0,1-.38-1.54c-.07-2.79,3.09-7.58,8.07-12.22a1.25,1.25,0,0,0,.06-1.76,1.29,1.29,0,0,0-1.77-.06C20.64,57.84,17.74,62.44,17.67,66.27Z"></path><path d="M54.88,59.76h0a1.25,1.25,0,0,0,.62,2.34,1.25,1.25,0,1,0-.61-2.34Z"></path><path d="M72.41,30.8a1.25,1.25,0,0,0,1.23,1.27c2.73,0,4.68.77,5.35,2a3,3,0,0,1,.37,1.54c.09,3-3.61,8.29-9.2,13.26a1.25,1.25,0,0,0-.09,1.76A1.23,1.23,0,0,0,71,51a1.22,1.22,0,0,0,.83-.32c6.67-6.07,10-11,10-15.13a5.53,5.53,0,0,0-.71-2.78c-1.23-2.08-3.74-3.17-7.46-3.24h0A1.27,1.27,0,0,0,72.41,30.8Z"></path><path d="M66.48,30.42h0a1.25,1.25,0,0,0-.95,1.49,1.27,1.27,0,0,0,1.22,1,1.24,1.24,0,0,0,.27,0h0A1.25,1.25,0,0,0,68,31.38,1.27,1.27,0,0,0,66.48,30.42Z"></path><path d="M20.84,39.25a5.4,5.4,0,1,0-5.4-5.4A5.4,5.4,0,0,0,20.84,39.25Zm0-8.3a2.9,2.9,0,1,1-2.9,2.9A2.9,2.9,0,0,1,20.84,31Z"></path><path d="M25,47a4.24,4.24,0,1,0-4.23,4.24A4.24,4.24,0,0,0,25,47Zm-6,0a1.74,1.74,0,1,1,1.74,1.74A1.74,1.74,0,0,1,19,47Z"></path><path d="M74.42,56.76a4.43,4.43,0,1,0,4.43-4.42A4.44,4.44,0,0,0,74.42,56.76Zm6.35,0a1.93,1.93,0,1,1-1.92-1.92A1.93,1.93,0,0,1,80.77,56.76Z"></path><path d="M68.4,23.79A4.43,4.43,0,1,0,64,19.36,4.44,4.44,0,0,0,68.4,23.79Zm0-6.35a1.93,1.93,0,1,1-1.93,1.92A1.93,1.93,0,0,1,68.4,17.44Z"></path><path d="M28.78,80.34a6.66,6.66,0,1,0,6.65-6.65A6.66,6.66,0,0,0,28.78,80.34Zm10.81,0a4.16,4.16,0,1,1-4.16-4.15A4.16,4.16,0,0,1,39.59,80.34Z"></path></g></svg>