<svg fill="#000000" height="56px" width="56px" version="1.1" id="Layer_1" xmlns="http://www.w3.org/2000/svg" xmlns:xlink="http://www.w3.org/1999/xlink" viewBox="0 0 512.51 512.51" xml:space="preserve"><g id="SVGRepo_bgCarrier" stroke-width="0"></g><g id="SVGRepo_tracerCarrier" stroke-linecap="round" stroke-linejoin="round"></g><g id="SVGRepo_iconCarrier"> <g transform="translate(1)"> <g> <g> <path d="M86.649,229.312v18.154c0,5.12,3.413,8.533,8.533,8.533s8.533-3.413,8.533-8.533v-18.154 c14.679-3.814,25.6-17.216,25.6-33.046c0-11.809-6.081-22.264-15.263-28.399L257.316,67.584v78.57 c-14.679,3.814-25.6,17.216-25.6,33.046s10.921,29.232,25.6,33.046V230.4c0,5.12,3.413,8.533,8.533,8.533 s8.533-3.413,8.533-8.533v-18.154c14.679-3.814,25.6-17.216,25.6-33.046s-10.921-29.232-25.6-33.046v-78.57l143.263,100.284 c-9.182,6.134-15.263,16.589-15.263,28.399c0,15.83,10.921,29.232,25.6,33.046v18.154c0,5.12,3.413,8.533,8.533,8.533 s8.533-3.413,8.533-8.533v-18.154c14.679-3.814,25.6-17.216,25.6-33.046c0-17.807-13.822-32.533-31.265-34.003L274.383,46.763 V8.533c0-5.12-3.413-8.533-8.533-8.533s-8.533,3.413-8.533,8.533v38.229L92.314,162.264 c-17.443,1.47-31.265,16.196-31.265,34.003C61.049,212.096,71.97,225.498,86.649,229.312z M453.583,196.267 c0,9.387-7.68,17.067-17.067,17.067s-17.067-7.68-17.067-17.067s7.68-17.067,17.067-17.067S453.583,186.88,453.583,196.267z M282.916,179.2c0,9.387-7.68,17.067-17.067,17.067s-17.067-7.68-17.067-17.067s7.68-17.067,17.067-17.067 S282.916,169.813,282.916,179.2z M95.183,179.2c9.387,0,17.067,7.68,17.067,17.067s-7.68,17.067-17.067,17.067 c-9.387,0-17.067-7.68-17.067-17.067S85.796,179.2,95.183,179.2z"></path> <path d="M103.716,273.067c0-5.12-3.413-8.533-8.533-8.533s-8.533,3.413-8.533,8.533v25.6c0,5.12,3.413,8.533,8.533,8.533 s8.533-3.413,8.533-8.533V273.067z"></path> <path d="M95.183,315.733c-5.12,0-8.533,3.413-8.533,8.533v25.6c0,5.12,3.413,8.533,8.533,8.533s8.533-3.413,8.533-8.533v-25.6 C103.716,319.147,100.303,315.733,95.183,315.733z"></path> <path d="M445.049,273.067c0-5.12-3.413-8.533-8.533-8.533s-8.533,3.413-8.533,8.533v25.6c0,5.12,3.413,8.533,8.533,8.533 s8.533-3.413,8.533-8.533V273.067z"></path> <path d="M436.516,315.733c-5.12,0-8.533,3.413-8.533,8.533v25.6c0,5.12,3.413,8.533,8.533,8.533s8.533-3.413,8.533-8.533v-25.6 C445.049,319.147,441.636,315.733,436.516,315.733z"></path> <path d="M265.849,247.467c-5.12,0-8.533,3.413-8.533,8.533v25.6c0,5.12,3.413,8.533,8.533,8.533s8.533-3.413,8.533-8.533V256 C274.383,250.88,270.969,247.467,265.849,247.467z"></path> <path d="M479.183,491.52c-16.213-11.093-25.6-29.867-25.6-48.64c0-18.773,9.387-37.547,25.6-48.64 c2.56-1.707,3.413-4.267,3.413-7.68c0-3.413-2.56-5.973-5.12-6.827c-7.68-2.56-16.213-4.267-23.893-4.267 c-2.891,0-5.734,0.203-8.533,0.556v-0.556c0-5.12-3.413-8.533-8.533-8.533s-8.533,3.413-8.533,8.533v5.027 c-24.955,10.182-42.667,34.736-42.667,63.239c0,37.547,30.72,68.267,68.267,68.267c7.68,0,16.213-1.707,23.893-5.973 c2.56-0.853,5.12-3.413,5.12-6.827C483.449,496.64,481.743,493.227,479.183,491.52z M453.583,494.933 c-28.16,0-51.2-23.04-51.2-51.2c0-22.78,15.08-42.204,35.749-48.796c0.57-0.107,1.112-0.269,1.624-0.479 c4.404-1.244,9.039-1.925,13.827-1.925c0.853,0,1.707,0,2.56,0c-12.8,13.653-19.627,32.427-19.627,51.2 c0,18.773,6.827,37.547,19.627,51.2C455.289,494.933,454.436,494.933,453.583,494.933z"></path> <path d="M154.063,418.133l-34.987-2.56l-15.363-31.495c0-0.027,0.003-0.052,0.003-0.079v-8.533c0-5.12-3.413-8.533-8.533-8.533 s-8.533,3.413-8.533,8.533v5.12l-17.067,34.987l-34.987,2.56c-2.56,0-4.267,3.413-5.973,5.973s-0.853,5.973,0.853,8.533 l25.6,30.72l-10.24,38.4c-0.853,3.413,0,6.827,2.56,8.533c2.56,2.56,5.12,2.56,8.533,1.707l39.253-16.213l39.253,15.36 c0.853,0.853,2.56,0.853,3.413,0.853c1.707,0,4.267-0.853,4.267-2.56c2.56-1.707,3.413-5.12,2.56-8.533l-10.24-38.4l25.6-30.72 c1.707-2.56,1.707-5.973,0.853-8.533S157.476,418.133,154.063,418.133z M120.783,455.68c-1.707,2.56-2.56,5.12-1.707,7.68 l6.827,26.453L98.596,478.72c-0.853-0.853-2.56-0.853-3.413-0.853s-2.56,0-2.56,0.853l-27.307,11.093l6.827-26.453 c0.853-2.56,0-5.973-1.707-7.68l-17.92-21.333l23.893-1.707c2.56-0.853,5.12-2.56,6.827-5.12l11.947-23.893l12.8,23.893 c0.853,3.413,3.413,5.12,6.827,5.12l23.893,1.707L120.783,455.68z"></path> <path d="M274.383,312.32v-5.12c0-5.12-3.413-8.533-8.533-8.533s-8.533,3.413-8.533,8.533v5.12l-57.173,57.173 c-3.413,3.413-3.413,8.533,0,11.947l59.733,59.733c1.707,1.707,3.413,2.56,5.973,2.56s4.267-0.853,5.973-2.56l59.733-59.733 c3.413-3.413,3.413-8.533,0-11.947L274.383,312.32z M265.849,423.253l-47.787-47.787l47.787-47.787l47.787,47.787 L265.849,423.253z"></path> </g> </g> </g> </g></svg>