<svg version="1.1" id="Uploaded to svgrepo.com" xmlns="http://www.w3.org/2000/svg" xmlns:xlink="http://www.w3.org/1999/xlink" width="56px" height="56px" viewBox="0 0 32.00 32.00" xml:space="preserve" fill="#000000" stroke="#000000" stroke-width="0.00032"><g id="SVGRepo_bgCarrier" stroke-width="0"></g><g id="SVGRepo_tracerCarrier" stroke-linecap="round" stroke-linejoin="round" stroke="#CCCCCC" stroke-width="0.512"></g><g id="SVGRepo_iconCarrier"> <style type="text/css"> .linesandangles_een{fill:#111918;} </style> <path class="linesandangles_een" d="M6,3v26h20V3H6z M24,5v4H8V5H24z M8,27V11h16v16H8z M16,12c-3.866,0-7,3.134-7,7s3.134,7,7,7 c3.866,0,7-3.134,7-7S19.866,12,16,12z M16,24c-2.757,0-5-2.243-5-5s2.243-5,5-5s5,2.243,5,5S18.757,24,16,24z M11,8H9V6h2V8z M14,8 h-2V6h2V8z M16,15v2c-1.103,0-2,0.897-2,2h-2C12,16.794,13.794,15,16,15z"></path> </g></svg>