<svg fill="#000000" width="12px" height="12px" viewBox="0 0 24 24" id="lari" data-name="Flat Color" xmlns="http://www.w3.org/2000/svg" class="icon flat-color" stroke="#000000" stroke-width="0.552"><g id="SVGRepo_bgCarrier" stroke-width="0"></g><g id="SVGRepo_tracerCarrier" stroke-linecap="round" stroke-linejoin="round"></g><g id="SVGRepo_iconCarrier"><path id="primary" d="M20,20H11.5A6.5,6.5,0,0,1,8,8v4a1,1,0,0,0,2,0V7.18A6.69,6.69,0,0,1,11.5,7c.17,0,.33,0,.5,0v5a1,1,0,0,0,2,0V7.53a6.5,6.5,0,0,1,3.87,4.67,1,1,0,0,0,2-.4A8.53,8.53,0,0,0,14,5.39V3a1,1,0,0,0-2,0V5l-.5,0a8.29,8.29,0,0,0-1.5.14V3A1,1,0,0,0,8,3V5.76A8.49,8.49,0,0,0,6,20H4a1,1,0,0,0,0,2H20a1,1,0,0,0,0-2Z" style="fill: #000000;"></path></g></svg>